Coordinates
version=1
nRows=14
nColumns=24
inDegrees=yes

Units are S.I. units (second, meters, Newtons, ...)
Angles are in degrees.

endheader
time	pelvis_tilt	pelvis_list	pelvis_rotation	pelvis_tx	pelvis_ty	pelvis_tz	hip_flexion_r	hip_adduction_r	hip_rotation_r	knee_angle_r	ankle_angle_r	subtalar_angle_r	mtp_angle_r	hip_flexion_l	hip_adduction_l	hip_rotation_l	knee_angle_l	ankle_angle_l	subtalar_angle_l	mtp_angle_l	lumbar_extension	lumbar_bending	lumbar_rotation
      1.42883333	      0.80216351	     -1.47813685	    -16.46580976	      0.92242125	      0.98888750	      0.29215978	    -19.64257230	      0.63127502	     10.92199397	    -11.07224048	     11.67666348	     -4.79721042	     16.05702778	     21.20633017	     -5.24636548	    -13.24227129	      4.43621129	      5.17994997	    -10.05515234	      3.67789427	     -2.84231072	      1.26966558	     11.96856725
      1.43300000	      0.85470703	     -1.41610941	    -16.56847977	      0.92828262	      0.98844052	      0.29199979	    -19.81011619	      0.43551500	     10.89214800	    -11.44723174	     11.46033876	     -4.81448098	     16.11467631	     21.21806251	     -5.18918999	    -13.24788360	      3.86877825	      5.27207070	    -10.26001446	      3.68925928	     -2.85276639	      1.14597601	     11.98525129
      1.43716667	      0.90496269	     -1.33391538	    -16.67759976	      0.93418959	      0.98801391	      0.29180109	    -19.93091851	      0.21036323	     10.77413068	    -11.88689197	     11.21781667	     -4.72464781	     20.81651319	     21.20919611	     -5.10332541	    -13.21429427	      3.33333790	      5.24921909	    -10.54875010	      4.68856946	     -2.86202029	      0.99857956	     12.03777445
      1.44133333	      0.95290809	     -1.24921180	    -16.79009922	      0.94011280	      0.98762578	      0.29161718	    -20.05017939	     -0.00864831	     10.74298099	    -12.32946008	     10.96555132	     -4.74051160	     20.82148676	     21.21448109	     -5.01886178	    -13.23171227	      2.73842578	      5.23323632	    -10.71507543	      4.68988049	     -2.87710108	      0.85859541	     12.08539633
      1.44550000	      1.00282305	     -1.13756840	    -16.90038871	      0.94612109	      0.98724638	      0.29141244	    -20.13470296	     -0.26342473	     10.59547341	    -12.83130516	     10.74595817	     -4.55619123	     20.90139751	     21.20689392	     -4.89920329	    -13.24324762	      2.15832015	      5.17669115	    -10.91010945	      4.71761886	     -2.84756566	      0.67859916	     12.30469201
      1.44966667	      1.05355309	     -1.01093444	    -17.00737850	      0.95215659	      0.98690796	      0.29118894	    -20.20316463	     -0.53043752	     10.45910821	    -13.35421351	     10.48728151	     -4.42072727	     21.05294544	     21.18862330	     -4.75597199	    -13.24269410	      1.58591576	      5.03142725	    -11.12914171	      4.76628750	     -2.82678802	      0.48710682	     12.40373753
      1.45383333	      1.11114919	     -0.87710265	    -17.10156348	      0.95824966	      0.98660899	      0.29096877	    -20.28344006	     -0.79743691	     10.35625338	    -13.86224099	     10.14101152	     -4.39847042	     21.12661818	     21.17501454	     -4.60101301	    -13.24771935	      0.98280183	      4.88024584	    -11.29925707	      4.79122482	     -2.80293655	      0.27264477	     12.44632039
      1.45800000	      1.18124293	     -0.73937432	    -17.20551238	      0.96436321	      0.98636786	      0.29072065	    -20.34550085	     -1.07992953	     10.22462693	    -14.41580623	      9.77524722	     -4.33680828	     23.80987032	     21.08754396	     -4.41691264	    -13.11890902	      0.50954536	      4.47881725	    -11.85699252	      5.73790755	     -2.79244481	      0.07441520	     12.50321578
      1.46216667	      1.22478164	     -0.56437469	    -17.26760161	      0.97055690	      0.98610313	      0.29043050	    -20.36298893	     -1.37711465	     10.02032607	    -14.99306765	      9.40257538	     -4.23959962	     23.87005984	     21.10724768	     -4.21017549	    -13.17249004	     -0.12260595	      4.27889257	    -11.87495644	      5.75708308	     -2.72858708	     -0.18016765	     12.58189708
      1.46633333	      1.27808734	     -0.38698037	    -17.33875496	      0.97676139	      0.98589529	      0.29014021	    -20.36372042	     -1.67900029	      9.84123257	    -15.61618572	      9.00366740	     -4.14321706	     23.95207592	     21.09961309	     -3.99391554	    -13.22418500	     -0.72337656	      3.97961818	    -12.00354159	      5.78372327	     -2.67924805	     -0.42845444	     12.63948393
      1.47050000	      1.32429617	     -0.19848553	    -17.40325270	      0.98296385	      0.98570415	      0.28978994	    -20.30653934	     -1.99384451	      9.58358819	    -16.32633401	      8.65606492	     -3.91650382	     24.19168990	     21.09178976	     -3.75665091	    -13.21958409	     -1.29600304	      3.59680411	    -12.23982486	      5.86231305	     -2.61795306	     -0.66625484	     12.72133420
      1.47466667	      1.39602655	     -0.01297549	    -17.43353563	      0.98923138	      0.98560337	      0.28944960	    -20.30894809	     -2.28939216	      9.39497240	    -16.97016406	      8.12250800	     -3.95456713	     24.25650608	     21.07476515	     -3.51147212	    -13.25381356	     -1.90931176	      3.27784212	    -12.34871374	      5.88197019	     -2.56714292	     -0.92250714	     12.73245996
      1.47883333	      1.42783462	      0.22373941	    -17.46395870	      0.99556106	      0.98547759	      0.28909851	    -20.22334927	     -2.62798344	      9.16587120	    -17.67345511	      7.58924038	     -3.84034879	     24.42011629	     21.08526995	     -3.21741126	    -13.24333364	     -2.46895522	      2.85337502	    -12.50360429	      5.93302960	     -2.46704614	     -1.25314705	     12.74924752
      1.48300000	      1.46114041	      0.44118551	    -17.47059432	      1.00185199	      0.98538408	      0.28865441	    -20.09391419	     -2.94514868	      8.86488346	    -18.46106439	      7.02846365	     -3.78270148	     30.66401021	     21.09992393	     -2.92757695	    -13.17603765	     -3.03964815	      2.38586475	    -12.83408060	      7.89111115	     -2.37443766	     -1.51674519	     12.72915438
